<?xml version="1.0" standalone="no"?>
<!DOCTYPE svg PUBLIC "-//W3C//DTD SVG 1.1//EN" "http://www.w3.org/Graphics/SVG/1.1/DTD/svg11.dtd" >
<svg xmlns="http://www.w3.org/2000/svg">
<metadata>Generated by IcoMoon</metadata>
<defs>
<font id="icomoon" horiz-adv-x="1024">
<font-face units-per-em="1024" ascent="960" descent="-64" />
<missing-glyph horiz-adv-x="1024" />
<glyph unicode="&#x20;" horiz-adv-x="512" d="" />
<glyph unicode="&#xe900;" glyph-name="add" d="M960 512h-384v384h-128v-384h-384v-128h384v-384h128v384h384z" />
<glyph unicode="&#xe901;" glyph-name="addfill" d="M512 896c-247.4 0-448-200.6-448-448s200.6-448 448-448 448 200.6 448 448-200.6 448-448 448zM576 384v-256h-128v256h-256v128h256v256h128v-256h256v-128h-256z" />
<glyph unicode="&#xe902;" glyph-name="anoucefill" d="M512 960c-282.8 0-512-229.2-512-512s229.2-512 512-512 512 229.2 512 512-229.2 512-512 512zM576 64h-128v64h128v-64zM832 192h-640v64h64v192c0 119.1 81.8 218.4 192 247v73c0 35.3 28.7 64 64 64s64-28.7 64-64v-73c110.2-28.6 192-127.8 192-247v-192h64v-64z" />
<glyph unicode="&#xe903;" glyph-name="cancell" d="M647.763 674.278l90.509-90.509-362.035-362.035-90.509 90.509 362.035 362.035zM738.278 312.237l-90.509-90.509-362.035 362.035 90.509 90.509 362.035-362.035z" />
<glyph unicode="&#xe904;" glyph-name="checked" d="M780.8 716.8l-358.4-358.4-179.2 179.2-96-89.6 185.6-179.2 89.6-89.6 454.4 448z" />
<glyph unicode="&#xe905;" glyph-name="uniE905" d="M512 896c249.6 0 448-198.4 448-448s-198.4-448-448-448-448 198.4-448 448 198.4 448 448 448zM512 960c-281.6 0-512-230.4-512-512s230.4-512 512-512 512 230.4 512 512-230.4 512-512 512v0z" />
<glyph unicode="&#xe906;" glyph-name="uniE906" d="M768 448c0-141.385-114.615-256-256-256s-256 114.615-256 256c0 141.385 114.615 256 256 256s256-114.615 256-256z" />
<glyph unicode="&#xe907;" glyph-name="clock" d="M512 846c53.8 0 105.9-10.5 154.9-31.3 47.4-20 90-48.7 126.5-85.3 36.6-36.6 65.3-79.1 85.3-126.5 20.7-49 31.3-101.2 31.3-154.9s-10.5-105.9-31.3-154.9c-20-47.4-48.7-90-85.3-126.5-36.6-36.6-79.1-65.3-126.5-85.3-49-20.8-101.1-31.3-154.9-31.3s-105.9 10.5-154.9 31.3c-47.4 20-90 48.7-126.5 85.3-36.6 36.6-65.3 79.1-85.3 126.5-20.8 49-31.3 101.1-31.3 154.9s10.5 105.9 31.3 154.9c20 47.4 48.7 90 85.3 126.5 36.6 36.6 79.1 65.3 126.5 85.3 49 20.8 101.1 31.3 154.9 31.3zM512 896c-247.4 0-448-200.6-448-448s200.6-448 448-448 448 200.6 448 448-200.6 448-448 448v0zM704 423h-217v345h50v-295h167z" />
<glyph unicode="&#xe908;" glyph-name="comment" d="M871.6 806.4c13.2 0 25.8-5.2 35.3-14.7s14.7-22 14.7-35.3v-463.2c0-27.6-22.1-50-49.4-50h-53v-119.2l-166.3 119.2h-499.3c-13.2 0-25.8 5.2-35.3 14.7s-14.7 22-14.7 35.3v463.2c0 13.2 5.2 25.8 14.7 35.3s22 14.7 35.3 14.7h718zM871.6 857.6h-718c-55.7 0-101.2-45.5-101.2-101.2v-463.2c0-55.7 45.5-101.2 101.2-101.2h482.9l208-149.1c3.1-3.1 7-4.5 10.8-4.5 7.4 0 14.5 5.3 15.1 13.7 0 0.4 0 0.8 0 1.2v138.7h1.8c55.7 0 100.6 45.5 100.6 101.2v463.2c0 55.7-45.5 101.2-101.2 101.2v0zM307.2 550.4c0-28.277-22.923-51.2-51.2-51.2s-51.2 22.923-51.2 51.2c0 28.277 22.923 51.2 51.2 51.2s51.2-22.923 51.2-51.2zM563.2 550.4c0-28.277-22.923-51.2-51.2-51.2s-51.2 22.923-51.2 51.2c0 28.277 22.923 51.2 51.2 51.2s51.2-22.923 51.2-51.2zM819.2 550.4c0-28.277-22.923-51.2-51.2-51.2s-51.2 22.923-51.2 51.2c0 28.277 22.923 51.2 51.2 51.2s51.2-22.923 51.2-51.2z" />
<glyph unicode="&#xe909;" glyph-name="commentfill" d="M871.6 857.6h-718c-55.7 0-101.2-45.5-101.2-101.2v-463.2c0-55.7 45.5-101.2 101.2-101.2h482.9l208-149.1c9.1-9.1 25-3.6 25.9 9.2 0 0.4 0 0.8 0 1.2v138.7h1.8c55.7 0 100.6 45.5 100.6 101.2v463.2c0 55.7-45.5 101.2-101.2 101.2zM256 499.2c-28.3 0-51.2 22.9-51.2 51.2s22.9 51.2 51.2 51.2 51.2-22.9 51.2-51.2-22.9-51.2-51.2-51.2zM460.8 550.4c0 28.3 22.9 51.2 51.2 51.2s51.2-22.9 51.2-51.2-22.9-51.2-51.2-51.2-51.2 22.9-51.2 51.2zM768 499.2c-28.3 0-51.2 22.9-51.2 51.2s22.9 51.2 51.2 51.2 51.2-22.9 51.2-51.2-22.9-51.2-51.2-51.2z" />
<glyph unicode="&#xe90a;" glyph-name="cut" d="M64 512h896v-128h-896v128z" />
<glyph unicode="&#xe90b;" glyph-name="cutfill" d="M511.5 895.5c-247.4 0-448-200.6-448-448s200.6-448 448-448 448 200.6 448 448-200.6 448-448 448zM735.5 391.5h-448v112h448v-112z" />
<glyph unicode="&#xe90c;" glyph-name="date" d="M959.9 713c0 34.3-25.7 62.5-58.9 66.5-2.9 0.5-5.8 0.8-8.7 0.8h-95.2v61.5c0 47.6-36.5 86.2-81.5 86.2h-40.7c-45 0-81.5-38.6-81.5-86.2v-61.5h-162.9v61.5c0 47.6-36.5 86.2-81.5 86.2h-40.7c-45 0-81.5-38.6-81.5-86.2v-61.5h-90.2c-1.7 0-3.4-0.1-5.1-0.3-0.2 0-0.3 0-0.5 0-37 0-67-30-67-67 0-0.1 0-0.2 0-0.3-0.1-0.9-0.1-1.8-0.1-2.6v-677.5c0-35.7 27.4-64.6 61.1-64.6h773.8c33.7 0 61.1 28.9 61.1 64.6v675.5c0 0.8 0 1.6-0.1 2.4 0.1 0.8 0.1 1.7 0.1 2.5zM661.3 854.2h74.7v-221.6h-74.7v221.6zM288 854.2h74.7v-221.6h-74.7v221.6zM885.4 41.9h-746.7v516.9h746.7v-516.9z" />
<glyph unicode="&#xe90d;" glyph-name="delete" d="M128 841.2h768v-56.1h-768v56.1zM364.3 897.3h295.4v-56.1h-295.4v56.1zM128 729v-616.9c0-61.9 52.9-112.2 118.2-112.2h531.7c65.3 0 118.2 50.2 118.2 112.2v616.9h-768.1zM364.3 112.2h-59.1v504.7h59.1v-504.7zM541.5 112.2h-59.1v504.7h59.1v-504.7zM718.8 112.2h-59.1v504.7h59.1v-504.7z" />
<glyph unicode="&#xe90e;" glyph-name="deletefil" d="M0 960v-1024h1024v1024h-1024zM773.4 120.1l-261.4 261.4-261.5-261.4-82.4 82.4 261.4 261.5-261.4 261.4 82.6 82.6 261.4-261.4 261.4 261.4 82.6-82.6-261.4-261.4 261.4-261.4-82.7-82.5z" />
<glyph unicode="&#xe90f;" glyph-name="down" d="M960 718.9l-448-526.9-448 526.9 43.7 36.4 404.3-475.6 404.3 475.6z" />
<glyph unicode="&#xe910;" glyph-name="downfill" d="M64 672l448-512 448 512z" />
<glyph unicode="&#xe911;" glyph-name="edit" d="M705.4 720.7l-365.1-365.1 121.5-121.5 364.8 365.8-121.2 120.8zM948.2 719.8l-121.6 121.6-80.8-80.4 121.5-121.5 80.9 80.3zM341 355.7l-40.9-161.8 162.4 40.3-121.5 121.5zM848 392v-224c0-30.8-25.2-56-56-56h-560c-30.8 0-56 25.2-56 56v560c0 30.8 25.2 56 56 56h336v112h-336c-93 0-168-75-168-168v-560c0-93 75-168 168-168h560c93 0 168 75 168 168v224h-112z" />
<glyph unicode="&#xe912;" glyph-name="editing" d="M866 806v-546h-708v546h708zM940 894h-856c-11 0-20-9-20-20v-687c0-11 9-20 20-20h856c11 0 20 9 20 20v687c0 11-9 20-20 20v0zM940 102h-856c-11 0-20-9-20-20v-62c0-11 9-20 20-20h856c11 0 20 9 20 20v62c0 11-9 20-20 20v0zM559 655.1l-228.2-228.1 95.9-95.9 227.9 228.7-95.6 95.3zM759 662.8l-96 96-72.2-71.9 95.9-95.9 72.3 71.8zM331 426.7l-32.2-127.7 128.2 31.8-96 95.9z" />
<glyph unicode="&#xe913;" glyph-name="expand" d="M735.8-0.9h-448c-123.5 0-224 100.4-224 224v448c0 123.5 100.5 224 224 224h448c123.5 0 224-100.5 224-224v-448c0-123.6-100.5-224-224-224zM287.8 805.5c-74.1 0-134.4-60.3-134.4-134.4v-448c0-74.1 60.3-134.4 134.4-134.4h448c74.1 0 134.4 60.3 134.4 134.4v448c0 74.1-60.3 134.4-134.4 134.4h-448zM256.4 491.9h510.9v-89.6h-510.9v89.6zM467 702.5h89.6v-510.9h-89.6v510.9z" />
<glyph unicode="&#xe914;" glyph-name="eye" d="M511.5 111.9c-26.5 0-48-21.5-48-47.9v-48c0-26.5 21.5-48 48-48s48 21.5 48 48v48c0.1 26.4-21.5 47.9-48 47.9zM511.5 783.2c26.5 0 48 21.5 48 48v47.8c0 26.5-21.5 48-48 48s-48-21.5-48-48v-47.9c0-26.5 21.5-47.9 48-47.9zM511.5 735.2c-348.4 6-480.5-287.7-480.5-287.7s141.1-287.7 480.5-287.7 480.5 287.7 480.5 287.7-132.1 281.7-480.5 287.7zM511.5 255.7c-237.5 0-351.5 191.8-351.5 191.8s107.6 195.8 351.5 191.8c-106.1 0-192.2-75.1-192.2-167.8s86.1-167.8 192.2-167.8 192.2 75.1 192.2 167.8c0 88.6-78.7 161.2-178.4 167.4 234.1-10.7 338.7-191.4 338.7-191.4s-115-191.8-352.5-191.8zM607.6 495.5c0-53-43-95.9-96.1-95.9s-96.1 42.9-96.1 95.9 43 95.9 96.1 95.9 96.1-43 96.1-95.9zM866.9 851.8c18.8-18.8 18.8-49.2 0.1-67.9l-33.9-33.9c-18.7-18.7-49.1-18.7-67.9 0.1s-18.8 49.2-0.1 67.9l33.9 33.9c18.8 18.7 49.1 18.7 67.9-0.1zM241.9 147.8c18.8-18.8 18.8-49.2 0.1-67.9l-33.9-33.9c-18.7-18.7-49.1-18.7-67.9 0.1s-18.8 49.2-0.1 67.9l33.9 33.9c18.7 18.7 49.1 18.7 67.9-0.1zM833.1 147.9l33.9-33.9c18.7-18.7 18.7-49.1-0.1-67.9s-49.2-18.8-67.9-0.1l-33.9 33.9c-18.7 18.7-18.7 49.1 0.1 67.9s49.1 18.8 67.9 0.1zM208.1 851.9l33.9-33.9c18.7-18.7 18.7-49.1-0.1-67.9s-49.2-18.8-67.9-0.1l-33.9 33.9c-18.7 18.7-18.7 49.1 0.1 67.9s49.1 18.8 67.9 0.1z" />
<glyph unicode="&#xe915;" glyph-name="infomsg" d="M512-64c282.8 0 512 229.2 512 512s-229.2 512-512 512-512-229.2-512-512 229.2-512 512-512zM448 768h128v-128h-128v128zM448 576h128v-448h-128v448z" />
<glyph unicode="&#xe916;" glyph-name="item" d="M747.5 604.7c-31.9 81.5-98.7 178.6-235.5 178.6-136.4 0-203.3-96.9-235.3-178.1l-47.4 18.3c25.2 64 60.6 114.5 105 150.1 49.7 39.9 109.5 60.1 177.7 60.1 68.3 0 128.2-20.3 177.9-60.3 44.5-35.8 79.9-86.4 105-150.5l-47.4-18.2zM848 508.6c33.7 0 61.1-27.2 61.1-60.5v-55.5c0-21.5-11.5-40.9-30.7-52l-25.3-14.6v-183.1c0-33.4-27.4-60.5-61.1-60.5h-560c-33.7 0-61.1 27.2-61.1 60.5v183.1l-25.3 14.6c-19.2 11.1-30.7 30.5-30.7 52v55.4c0 33.4 27.4 60.5 61.1 60.5h672zM848 559h-672c-61.9 0-112-49.7-112-111v-55.5c0-41 22.7-76.3 56-95.6v-154.1c0-61.3 50.1-110.9 112-110.9h560c61.9 0 112 49.7 112 110.9v154.2c33.3 19.2 56 54.6 56 95.6v55.4c0 61.3-50.1 111-112 111v0zM694 420.3c-23.2 0-42-18.6-42-41.6s18.8-41.6 42-41.6 42 18.6 42 41.6c0 23-18.8 41.6-42 41.6v0zM330 420.3c-23.2 0-42-18.6-42-41.6s18.8-41.6 42-41.6c23.2 0 42 18.6 42 41.6s-18.8 41.6-42 41.6v0z" />
<glyph unicode="&#xe917;" glyph-name="itemfill" d="M747.5 604.7c-31.9 81.5-98.7 178.6-235.5 178.6-136.4 0-203.3-96.9-235.3-178.1l-47.4 18.3c25.2 64 60.6 114.5 105 150.1 49.7 39.9 109.5 60.1 177.7 60.1 68.3 0 128.2-20.3 177.9-60.3 44.5-35.8 79.9-86.4 105-150.5l-47.4-18.2zM848 559h-672c-61.9 0-112-49.7-112-111v-55.5c0-41 22.7-76.3 56-95.6v-154.1c0-61.3 50.1-110.9 112-110.9h560c61.9 0 112 49.7 112 110.9v154.2c33.3 19.2 56 54.6 56 95.6v55.4c0 61.3-50.1 111-112 111zM330 337.1c-23.2 0-42 18.6-42 41.6s18.8 41.6 42 41.6 42-18.6 42-41.6c0-23-18.8-41.6-42-41.6zM694 337.1c-23.2 0-42 18.6-42 41.6s18.8 41.6 42 41.6 42-18.6 42-41.6c0-23-18.8-41.6-42-41.6z" />
<glyph unicode="&#xe918;" glyph-name="load" d="M169.1 544c4 14.4 9 28.6 14.9 42.6 17.9 42.4 43.6 80.5 76.3 113.2s70.8 58.4 113.2 76.3c43.9 18.5 90.5 28 138.6 28s94.7-9.4 138.6-28c42.4-17.9 80.5-43.6 113.2-76.3s58.4-70.8 76.3-113.2c5.9-13.9 10.8-28.1 14.9-42.6h61.9c-43.5 183.5-208.3 320-405 320-148.2 0-278.3-77.5-352-194.2-24.1-38.2 9.1-125.8 9.1-125.8zM862.3 384c-4.6-25.5-12-50.5-22.2-74.6-17.9-42.4-43.6-80.5-76.3-113.2s-70.8-58.4-113.2-76.3c-43.9-18.5-90.5-28-138.6-28s-94.7 9.4-138.6 28c-42.4 17.9-80.5 43.6-113.2 76.3s-58.4 70.8-76.3 113.2c-10.2 24.1-17.6 49-22.2 74.6h-60.8c30.8-199.4 203.1-352 411.1-352 145.2 0 273 74.4 347.4 187.1 32.2 48.7 2.9 164.9 2.9 164.9zM205.5 709.5l-36.4-165.5-66.1 202.5zM826 218.5l36.4 165.5 66.1-202.5z" />
<glyph unicode="&#xe919;" glyph-name="memofill" d="M896 896h-768c-70.4 0-128-57.6-128-128v-480c0-70.4 57.6-128 128-128h64v-160l227.2 160h476.8c70.4 0 128 57.6 128 128v480c0 70.4-57.6 128-128 128zM256 512c-35.2 0-64 28.8-64 64s28.8 64 64 64 64-28.8 64-64-28.8-64-64-64zM512 512c-35.2 0-64 28.8-64 64s28.8 64 64 64 64-28.8 64-64-28.8-64-64-64zM768 512c-35.2 0-64 28.8-64 64s28.8 64 64 64 64-28.8 64-64-28.8-64-64-64z" />
<glyph unicode="&#xe91a;" glyph-name="money" d="M797.1 806.4c19.4 0 37.8-7.7 51.7-21.6s21.6-32.3 21.6-51.7v-107.8c-62.5-36-102.4-103.4-102.4-177.3s39.9-141.3 102.4-177.4v-107.8c0-19.4-7.7-37.8-21.6-51.7s-32.3-21.6-51.7-21.6h-621.4c-15.9 0-34 10.1-49.7 27.7-16.1 18.1-23.6 37.9-23.6 45.6v107.8c62.5 36.1 102.4 103.5 102.4 177.4s-39.9 141.3-102.4 177.4v85.7c0 57 29.4 95.3 73.3 95.3h621.4zM797.1 857.6h-621.4c-68.4 0-124.5-56-124.5-146.5v-118.2c59.7-21.1 102.4-78 102.4-144.8s-42.7-123.9-102.4-144.9v-140.3c0-46.4 56-124.5 124.5-124.5h621.5c68.5 0 124.5 56 124.5 124.5v140.3c-59.7 21.1-102.4 78-102.4 144.8s42.7 123.8 102.4 144.8v140.3c-0.1 68.5-56.1 124.5-124.6 124.5v0zM640 395.8c14.1 0 25.6-11.5 25.6-25.6s-11.5-25.6-25.6-25.6h-128v-151.6c0-0.5-0.4-1-1-1h-49.2c-0.5 0-1 0.5-1 1v151.6h-128c-14.1 0-25.6 11.5-25.6 25.6s11.5 25.6 25.6 25.6h128v51.2h-128c-14.1 0-25.6 11.5-25.6 25.6s11.5 25.6 25.6 25.6h128l-94.9 103.4c-10 10-10 26.2 0 36.2v0c5 5 11.5 7.5 18.1 7.5s13.1-2.5 18.1-7.5l83.9-87.4 84.7 87.4c5 5 11.5 7.5 18.1 7.5s13.1-2.5 18.1-7.5c10-10 10-26.2 0-36.2l-94.9-103.4h128c14.1 0 25.6-11.5 25.6-25.6s-11.5-25.6-25.6-25.6h-128v-51.2h128z" />
<glyph unicode="&#xe91b;" glyph-name="moneyfill" d="M921.6 592.8v140.3c0 68.5-56 124.5-124.5 124.5h-621.4c-68.5 0-124.5-56-124.5-146.5v-118.2c59.7-21.1 102.4-78 102.4-144.8s-42.7-123.9-102.4-144.9v-140.3c0-46.4 56-124.5 124.5-124.5h621.5c68.5 0 124.5 56 124.5 124.5v140.3c-59.7 21.1-102.4 78-102.4 144.8s42.6 123.8 102.3 144.8zM640 395.8c14.1 0 25.6-11.5 25.6-25.6s-11.5-25.6-25.6-25.6h-128v-151.6c0-0.5-0.4-1-1-1h-49.2c-0.5 0-1 0.5-1 1v151.6h-128c-14.1 0-25.6 11.5-25.6 25.6s11.5 25.6 25.6 25.6h128v51.2h-128c-14.1 0-25.6 11.5-25.6 25.6s11.5 25.6 25.6 25.6h128l-94.9 103.4c-10 10-10 26.2 0 36.2v0c5 5 11.5 7.5 18.1 7.5s13.1-2.5 18.1-7.5l83.9-87.4 84.7 87.4c5 5 11.5 7.5 18.1 7.5s13.1-2.5 18.1-7.5c10-10 10-26.2 0-36.2l-94.9-103.4h128c14.1 0 25.6-11.5 25.6-25.6s-11.5-25.6-25.6-25.6h-128v-51.2h128z" />
<glyph unicode="&#xe91c;" glyph-name="msgnotice" d="M801.9 832h-579.8c-87.3 0-158.1-68.8-158.1-153.6v-460.8c0-84.8 70.8-153.6 158.1-153.6h579.8c87.3 0 158.1 68.8 158.1 153.6v460.8c0 84.8-70.8 153.6-158.1 153.6zM862.9 616.6l-313.6-253.4c-20.6-20-54-20-74.5 0l-313.7 253.4c-20.6 20-20.6 52.4 0 72.4s54 20 74.5 0l276.4-223.3 276.3 223.3c20.6 20 53.9 20 74.5 0s20.6-52.4 0.1-72.4z" />
<glyph unicode="&#xe91d;" glyph-name="noticefill" d="M511.5 959c-283 0-512.5-229-512.5-511.5s229.5-511.5 512.5-511.5 512.5 229 512.5 511.5-229.5 511.5-512.5 511.5zM447.4 127.8l-128.1 191.8h-128.1v255.7h128.1l128.1 191.8h128.1v-639.4l-128.1 0.1zM639.6 255.7v63.9c0 0 130.3-24 128.1 127.9-2 141.9-128.1 127.9-128.1 127.9v63.9c0 0 192.2 8 192.2-191.8s-192.2-191.8-192.2-191.8z" />
<glyph unicode="&#xe91e;" glyph-name="play" d="M416 256v384l223.6-192.5-223.6-191.5zM736 815.5c38.5 0 74.6-15 101.8-42.2 27.2-27.1 42.2-63.3 42.2-101.7v-447.8c0-38.4-15-74.5-42.2-101.7-27.2-27.1-63.3-42.1-101.8-42.1h-448c-38.5 0-74.6 15-101.8 42.2-27.2 27.1-42.2 63.3-42.2 101.7v447.7c0 38.4 15 74.5 42.2 101.7s63.4 42.2 101.8 42.2h448zM736 895.5h-448c-123.7 0-224-100.2-224-223.9v-447.8c0-123.6 100.3-223.8 224-223.8h448c123.7 0 224 100.2 224 223.9v447.7c0 123.7-100.3 223.9-224 223.9v0z" />
<glyph unicode="&#xe91f;" glyph-name="protect" d="M896 439c0-262.8-311.6-439-384-439s-384 185.2-384 439c0 11.9 0 48 0 54.8v320.7c0 45 35.3 81.5 78.8 81.5h610.5c43.5 0 78.8-36.5 78.8-81.5v-320.7c-0.1-6.8-0.1-42.9-0.1-54.8zM826.2 480.4v286c0 32-25.6 57.9-57.1 57.9h-514.2c-31.5 0-57.1-25.9-57.1-57.9v-286c0-4.4 0-28.3 0-36.2 0-205 254.9-354.6 314.2-354.6s314.2 142.4 314.2 354.6c0 7.9 0 31.8 0 36.2zM466.9 331.8c-12.4-12.3-32.4-12.3-44.8 0-1.8 1.7-9 8.9-11.2 11.1l-134.4 133.4c-12.4 12.3-12.4 32.2 0 44.5s30.5 10.5 44.8 0l123.2-75.1 257.7 208.5c13.1 11.1 32.4 12.3 44.8 0s12.4-32.2 0-44.5l-280.1-277.9z" />
<glyph unicode="&#xe920;" glyph-name="questionfill" d="M511.5 959.5c-282.8 0-512-229.2-512-512s229.2-512 512-512 512 229.2 512 512-229.2 512-512 512zM543.4 169.1c-15.8-14.3-34.7-21.4-56.9-21.4-22.5 0-41.4 7.2-56.9 21.7-15.5 14.4-23.2 31.4-23.2 51 0 20.1 7.7 37.4 23.2 51.8s34.4 21.7 56.9 21.7c22.2 0 41.1-7.1 56.9-21.4s23.6-31.7 23.6-52.1c0.1-19.9-7.8-37-23.6-51.3zM694.8 584.7c-15.2-28.3-41.3-57.5-78.3-87.5-31.2-24.8-51.1-44.3-59.7-58.4-8.6-14.2-12.9-31.1-12.9-51v-30.2h-115.5v41.1c0 31.2 5.7 57.8 17.1 79.8s30.5 44.1 57.3 66.3c30.9 25.4 51.5 46.2 61.7 62.3s15.3 33.6 15.3 52.3c0 21.6-7.6 38.8-22.8 51.6s-36.9 19.3-65.2 19.3c-54.8 0-105.9-20.4-153.1-61.2v134.8c52.2 29.2 108.1 43.8 167.6 43.8 66.8 0 118.7-15.3 155.8-45.9 37-30.6 55.6-72 55.6-124.2-0.1-33.6-7.7-64.6-22.9-92.9z" />
<glyph unicode="&#xe921;" glyph-name="radio-checked" d="M768 448c0-141.385-114.615-256-256-256s-256 114.615-256 256c0 141.385 114.615 256 256 256s256-114.615 256-256z" />
<glyph unicode="&#xe922;" glyph-name="retract" d="M735.8-0.9h-448c-123.5 0-224 100.4-224 224v448c0 123.5 100.5 224 224 224h448c123.5 0 224-100.5 224-224v-448c0-123.6-100.5-224-224-224zM287.8 805.5c-74.1 0-134.4-60.3-134.4-134.4v-448c0-74.1 60.3-134.4 134.4-134.4h448c74.1 0 134.4 60.3 134.4 134.4v448c0 74.1-60.3 134.4-134.4 134.4h-448zM256.4 491.9h510.9v-89.6h-510.9v89.6z" />
<glyph unicode="&#xe923;" glyph-name="scan" d="M65.2 832v-768h894.8v768h-894.8zM344.8 722.3h111.8v-109.7h-111.8v109.7zM232.9 173.7h-111.8v109.7h111.8v-109.7zM232.9 612.6h-111.8v109.7h111.8v-109.7zM456.6 173.7h-111.8v109.7h111.8v-109.7zM512.6 338.3h-55.9v219.4h55.9v-54.9h55.9v-109.7h-55.9v-54.8zM680.4 173.7h-111.9v109.7h111.8v-109.7zM680.4 612.6h-111.9v109.7h111.8v-109.7zM904.1 173.7h-111.9v109.7h111.8v-109.7zM904.1 612.6h-111.9v109.7h111.8v-109.7z" />
<glyph unicode="&#xe924;" glyph-name="search" d="M455.5 835.5c44.8 0 88.3-8.8 129.2-26.1 39.5-16.7 75-40.7 105.5-71.2s54.5-66 71.2-105.6c17.3-40.9 26.1-84.4 26.1-129.2s-8.8-88.3-26.1-129.2c-16.7-39.5-40.7-75-71.2-105.5s-66-54.5-105.5-71.2c-40.9-17.3-84.4-26.1-129.2-26.1s-88.3 8.8-129.2 26.1c-39.5 16.7-75 40.7-105.5 71.2s-54.5 66-71.2 105.5c-17.3 40.9-26.1 84.4-26.1 129.2s8.8 88.3 26.1 129.2c16.7 39.5 40.7 75 71.2 105.6 30.5 30.5 66 54.5 105.6 71.2 40.8 17.3 84.3 26.1 129.1 26.1zM455.5 895.5c-216.5 0-392-175.5-392-392s175.5-392 392-392 392 175.5 392 392c0 216.5-175.5 392-392 392v0zM760 282l-83-82 200-200 83 82z" />
<glyph unicode="&#xe925;" glyph-name="selectfill" d="M0-64h1024v1024l-1024-1024zM598.7-16.6l-222.3 233 71.6 71.6 150.7-161.5 314.4 331.4 71.6-71.6-386-402.9z" />
<glyph unicode="&#xe926;" glyph-name="setting" d="M919.4 382.2l-28.6-0.3c0-0.3-0.1-0.5-0.1-0.8-22.6-0.9-43.7-14.7-52.8-37l-19-46.5c-10.2-24.9-2.3-52.6 17.6-68.7l15.4-15.1c16.2-15.8 16.5-41.7 0.6-57.9l-41-41.9c-15.8-16.2-41.7-16.5-57.9-0.6l-20 19.5c0 0 0 0 0 0-16.6 15.8-41.6 21.2-64.1 11.7l-46.4-19.6c-22.9-9.6-36.7-32-36.5-55.4-0.1 0-0.2 0-0.2 0l0.3-27.6c0.3-22.6-17.9-41.2-40.5-41.4l-58.6-0.7c-22.6-0.3-41.2 17.9-41.4 40.5l-0.3 27.5c-0.1 0-0.3 0.1-0.4 0.1-0.5 23.1-14.5 44.9-37.4 54l-46.6 18.7c-22.8 9.2-48 3.2-64.3-13.1 0 0-0.1 0-0.1 0.1l-19.3-19.7c-15.8-16.2-41.7-16.5-57.9-0.6l-41.9 41c-16.2 15.8-16.5 41.7-0.6 57.9l19.3 19.8c-0.1 0.1-0.2 0.3-0.3 0.4 15.4 16.6 20.6 41.3 11.2 63.6l-19.5 46.3c-9.5 22.5-31.2 36.2-54.1 36.5 0 0.2-0.1 0.4-0.1 0.6l-27.9-0.3c-22.6-0.3-41.2 17.9-41.4 40.5l-0.7 58.6c-0.3 22.6 17.9 41.2 40.5 41.4l28.2 0.3c0 0 0 0.1 0 0.1 22.5 1 43.5 14.8 52.6 37l19 46.5c9.2 22.5 3.6 47.3-12.2 63.7 0.2 0.2 0.3 0.5 0.5 0.7l-20.5 20c-16.2 15.8-16.5 41.7-0.6 57.9l41 41.9c15.8 16.2 41.7 16.5 57.9 0.6l20.7-20.2c0.2 0.2 0.4 0.3 0.7 0.5 16.6-14.7 40.8-19.6 62.7-10.4l46.3 19.5c22.1 9.3 35.6 30.3 36.4 52.7 0.1 0 0.3 0.1 0.4 0.1l-0.3 29.2c-0.4 22.7 17.8 41.2 40.4 41.4l58.6 0.7c22.6 0.3 41.2-17.9 41.4-40.5l0.2-19.5c-3.8-26.5 10.8-53.3 36.8-63.7l46.6-18.7c24.5-9.8 51.7-2.2 67.8 17l17 17.3c15.8 16.2 41.7 16.5 57.9 0.6l41.9-41c16.2-15.8 16.5-41.7 0.6-57.9l-20.4-20.9c0.1-0.1 0.1-0.2 0.2-0.3-15.1-16.6-20.2-41.1-10.9-63.2l19.5-46.3c10.1-23.9 33.9-37.8 58.4-36.4l24.5 0.3c22.6 0.3 41.2-17.9 41.4-40.5l0.7-58.6c0.4-22.6-17.8-41.2-40.4-41.4zM683.6 450.3c-1.1 95.6-79.4 172.2-175 171.2s-172.2-79.4-171.2-175c1.1-95.6 79.4-172.2 175-171.2s172.3 79.4 171.2 175z" />
<glyph unicode="&#xe927;" glyph-name="shopdata" d="M819.2 396.8v-102.4h51.2v102.4h-51.2zM204.8 138.7v258.1h-51.2v-250.4c0-59.4 48.6-108 108-108h158.3v51.2h-166c-27 0-49.1 22.1-49.1 49.1zM563.2 38.4h-102.4v128c0 14.1 11.5 25.6 25.6 25.6h51.2c14.1 0 25.6-11.5 25.6-25.6v-128zM716.8 38.4h-102.4v281.6c0 14.1 11.5 25.6 25.6 25.6h51.2c14.1 0 25.6-11.5 25.6-25.6v-281.6zM870.4 38.4h-102.4v179.2c0 14.1 11.5 25.6 25.6 25.6h51.2c14.1 0 25.6-11.5 25.6-25.6v-179.2zM768 652.8h-512c0 28.3 22.9 51.2 51.2 51.2h409.6c28.3 0 51.2-22.9 51.2-51.2v0zM921.6 506.7l-51.2 248.5c-4.4 29.6-23 51.2-51.2 51.2h-47.2v39.4c0 6.6-5.4 12-12 12h-80c-6.6 0-12-5.4-12-12v-39.4h-463.2c-28.2 0-45.6-22.1-51.2-51.2l-51.2-248.5 0.5-0.5c-0.3-2.3-0.5-4.6-0.5-7 0-28.2 23-51.2 51.2-51.2h716.8c28.2 0 51.2 23 51.2 51.2 0 2.4-0.2 4.7-0.5 7l0.5 0.5zM870.4 499.2h-716.6c0 0 0 0-0.1 0.1l1 7 49.2 238.6 0.2 0.8c1 5 2.3 8 3.2 9.6l610.3-0.1c0.7-1.3 1.6-3.7 2.2-7.5l0.2-1.4 0.3-1.4 49.2-238.6 0.9-7.1c0.1 0.1 0.1 0.1 0 0z" />
<glyph unicode="&#xe928;" glyph-name="shopdatafill" d="M460.8 243.2h102.4v117.4c0 20 16.2 36.2 36.2 36.2h132.4c20 0 36.2-16.2 36.2-36.2v-66.2h102.4v102.4h-716.8v-250.4c0-59.4 48.6-108 108-108h158.3v163.9c0 22.6 18.3 40.9 40.9 40.9zM563.2 38.4h-102.4v128c0 14.1 11.5 25.6 25.6 25.6h51.2c14.1 0 25.6-11.5 25.6-25.6v-128zM716.8 38.4h-102.4v281.6c0 14.1 11.5 25.6 25.6 25.6h51.2c14.1 0 25.6-11.5 25.6-25.6v-281.6zM870.4 38.4h-102.4v179.2c0 14.1 11.5 25.6 25.6 25.6h51.2c14.1 0 25.6-11.5 25.6-25.6v-179.2zM921.6 506.7l-51.2 248.5c-4.4 29.6-23 51.2-51.2 51.2h-614.4c-28.2 0-45.6-22.1-51.2-51.2l-51.2-248.5 0.5-0.5c-0.3-2.3-0.5-4.6-0.5-7v0c0-28.2 23-51.2 51.2-51.2h716.8c28.2 0 51.2 23 51.2 51.2v0c0 2.4-0.2 4.7-0.5 7l0.5 0.5zM768 652.8h-512c0 28.3 22.9 51.2 51.2 51.2h409.6c28.3 0 51.2-22.9 51.2-51.2v0zM757 731.8h-80c-6.6 0-12 5.4-12 12v102c0 6.6 5.4 12 12 12h80c6.6 0 12-5.4 12-12v-102c0-6.6-5.4-12-12-12z" />
<glyph unicode="&#xe929;" glyph-name="step-done" d="M511.3 895.6c-247.4 0-448-200.6-448-448.1s200.6-448.1 448.1-448.1 448 200.6 448 448.1-200.6 448.1-448.1 448.1zM410 204.1l-222.2 222.1 59.7 59.7 163.6-163.5 335.7 335.7 58.1-58-394.9-396z" />
<glyph unicode="&#xe92a;" glyph-name="step-next" d="M63.3 447.5c0-247.5 200.6-448.1 448.1-448.1s448.1 200.6 448.1 448.1-200.7 448.1-448.2 448.1c-247.4 0-448-200.6-448-448.1zM884.7 447.5c0-206.2-167.2-373.4-373.4-373.4s-373.4 167.2-373.4 373.4c0 206.2 167.2 373.4 373.4 373.4 206.3 0 373.4-167.2 373.4-373.4zM468.3 676.5l-51.4-51.3 177-177-177-176.9 52.8-52.8 228.9 228.8-52.8 52.8-0.6-0.5z" />
<glyph unicode="&#xe92b;" glyph-name="step-start" d="M511.3 895.6c-247.4 0-448-200.6-448-448.1s200.6-448.1 448.1-448.1 448 200.6 448 448.1c0 247.5-200.6 448.1-448.1 448.1zM511.3 74.1c-206.2 0-373.4 167.2-373.4 373.4s167.2 373.4 373.4 373.4c206.2 0 373.4-167.2 373.4-373.4s-167.1-373.4-373.4-373.4zM740.4 490.6l-51.4 51.3-176.9-176.9-177 176.9-52.8-52.8 228.8-228.8 52.8 52.8-0.5 0.5z" />
<glyph unicode="&#xe92c;" glyph-name="stop" d="M736 815.5c38.5 0 74.6-15 101.8-42.2 27.2-27.1 42.2-63.3 42.2-101.7v-447.8c0-38.4-15-74.5-42.2-101.7-27.2-27.1-63.3-42.1-101.8-42.1h-448c-38.5 0-74.6 15-101.8 42.2-27.2 27.1-42.2 63.3-42.2 101.7v447.7c0 38.4 15 74.5 42.2 101.7s63.4 42.2 101.8 42.2h448zM736 895.5h-448c-123.7 0-224-100.2-224-223.9v-447.8c0-123.6 100.3-223.8 224-223.8h448c123.7 0 224 100.2 224 223.9v447.7c0 123.7-100.3 223.9-224 223.9v0zM652 288h-280c-11 0-20 9-20 20v280c0 11 9 20 20 20h280c11 0 20-9 20-20v-280c0-11-9-20-20-20z" />
<glyph unicode="&#xe92d;" glyph-name="successfill" d="M511.5 959c-283 0-512.5-229-512.5-511.5s229.5-511.5 512.5-511.5 512.5 229 512.5 511.5-229.5 511.5-512.5 511.5zM422 149.8l-271.8 271.2 90.6 90.4 181.2-180.8 362.4 361.7 90.6-90.4-453-452.1z" />
<glyph unicode="&#xe92e;" glyph-name="template" d="M315.3 831.4l-167.3-159.4h167.3v159.4zM546 781.4v-255.7h-348v96.3h167.3v159.4h180.7zM568 831.4h-252.7v-159.4h-167.3v-196.3h448v328.3c0 15.1-12.5 27.4-28 27.4v0zM826 699.2v-173.4h-68v173.4h68zM848 749.2h-112c-15.5 0-28-12.3-28-27.4v-218.6c0-15.1 12.5-27.4 28-27.4h112c15.5 0 28 12.3 28 27.4v218.5c0 15.2-12.5 27.5-28 27.5v0zM714 699.2v-173.4h-119.8v173.4h119.8zM736 749.2h-163.8c-15.5 0-28-12.3-28-27.4v-218.6c0-15.1 12.5-27.4 28-27.4h163.8c15.5 0 28 12.3 28 27.4v218.5c0 15.2-12.5 27.5-28 27.5v0zM638 392.9h-252c-23.2 0-42-18.4-42-41.1s18.8-41.1 42-41.1h252c23.2 0 42 18.4 42 41.1s-18.8 41.1-42 41.1v0zM848 475.6c34.2 0 62-26.7 62-59.6v-242.4c0-32.9-27.8-59.6-62-59.6h-672c-34.2 0-62 26.7-62 59.6v242.4c0 32.9 27.8 59.6 62 59.6h672zM848 525.6h-672c-61.9 0-112-49.1-112-109.6v-242.4c0-60.5 50.1-109.6 112-109.6h672c61.9 0 112 49.1 112 109.6v242.4c0 60.5-50.1 109.6-112 109.6v0z" />
<glyph unicode="&#xe92f;" glyph-name="templatefill" d="M676.2 529.7h54.9c15.2 0 27.5 12.3 27.5 27.4v164.4c0 15.1-12.3 27.4-27.5 27.4h-54.9c-15.2 0-27.5-12.3-27.5-27.4v-164.4c0.1-15.1 12.4-27.4 27.5-27.4zM840.9 529.7c15.2 0 27.5 12.3 27.5 27.4v164.4c0 15.1-12.3 27.4-27.5 27.4s-27.5-12.3-27.5-27.4v-164.4c0.1-15.1 12.4-27.4 27.5-27.4zM593.9 529.7v274.1c0 15.1-12.3 27.4-27.5 27.4h-247.1l-164.7-164.4v-137l439.3-0.1zM319.3 776.4v-109.6h-109.8l109.8 109.6zM950.8 365.3c0 60.5-49.2 109.6-109.8 109.6h-658.9c-60.6 0-109.8-49.1-109.8-109.6v-191.8c0-60.5 49.2-109.6 109.8-109.6h658.9c60.6 0 109.8 49.1 109.8 109.6v191.8zM635 310.5h-247.1c-22.7 0-41.2 18.4-41.2 41.1s18.4 41.1 41.2 41.1h247.1c22.7 0 41.2-18.4 41.2-41.1s-18.4-41.1-41.2-41.1z" />
<glyph unicode="&#xe930;" glyph-name="traderate" d="M898.8 482.2c23.9 82.4 22.8 180 22.8 290.6 0 39.8-254.2-29.5-254.2-29.5s-76.9 165.5-154 165.5c-77 0-163.4-167.9-163.4-167.9s-247.5 85.8-247.5 37.8c0-118.5-5.6-195 19.9-313.7 29.7-137.7 161.5-249.9 338.4-269.5v-208.4h102.4v207.6c165.5 15.4 285.3 114.4 335.6 287.5zM185.2 479.7c-21 64.6-15.9 141.6-15.9 229.6 39.1 12.7 221.6-48.9 221.6-48.9s66.1 147.6 122.5 147.6c56.4 0 120.1-148.7 120.1-148.7s187.7 60.3 221.5 49.2c0-83.9 1.4-160.4-21-225.8-48.8-142.7-168.7-224.8-319.4-224.8-160.8 0-281.5 74.5-329.4 221.8zM366.5 112.5c-23.2 23.5-54.5 42-93 55-46 15.6-104.9 23.5-171 23.5v-63.2c131.2 0 182.5-23.9 211.7-51.6 29.6-28 31.2-36.4 31.2-37.6 0 0.3 0 0.4 0 0.4l65.2-0.3c-0.1 4.8-2.8 32.1-44.1 73.8zM680.7 38.7c0 0.3 0 0.4 0 0.4v0c0-0.2 0-0.4 0-0.4zM752.6 168.5c-38.5-13.1-69.8-31.6-93-55-41.3-41.6-45-70-45.1-74.7l66.2 0.3c0 2.6 0.6 16.1 28.2 42.2 29.2 27.6 81.5 46.6 212.7 46.6v64.1c-66.1 0-122.9-7.9-169-23.5z" />
<glyph unicode="&#xe931;" glyph-name="traderatefill" d="M898.8 482.2c23.9 82.4 22.8 180 22.8 290.6 0 39.8-254.2-29.5-254.2-29.5s-76.9 165.5-154 165.5c-77 0-163.4-167.9-163.4-167.9s-247.5 85.8-247.5 37.8c0-118.5-5.6-195 19.9-313.7 29.7-137.7 161.5-249.9 338.4-269.5v-208.4h102.4v207.6c165.5 15.4 285.3 114.4 335.6 287.5zM366.5 112.5c-23.2 23.5-54.5 42-93 55-46 15.6-104.9 23.5-171 23.5v-63.2c131.2 0 182.5-23.9 211.7-51.6 29.6-28 31.2-36.4 31.2-37.6 0 0.3 0 0.4 0 0.4l65.2-0.3c-0.1 4.8-2.8 32.1-44.1 73.8zM680.7 38.7c0 0.3 0 0.4 0 0.4v0c0-0.2 0-0.4 0-0.4zM752.6 168.5c-38.5-13.1-69.8-31.6-93-55-41.3-41.6-45-70-45.1-74.7l66.2 0.3c0 2.6 0.6 16.1 28.2 42.2 29.2 27.6 81.5 46.6 212.7 46.6v64.1c-66.1 0-122.9-7.9-169-23.5z" />
<glyph unicode="&#xe932;" glyph-name="unchecked-radio" d="M512 896c249.6 0 448-198.4 448-448s-198.4-448-448-448-448 198.4-448 448 198.4 448 448 448zM512 960c-281.6 0-512-230.4-512-512s230.4-512 512-512 512 230.4 512 512-230.4 512-512 512v0zM768 448c0-141.385-114.615-256-256-256s-256 114.615-256 256c0 141.385 114.615 256 256 256s256-114.615 256-256z" />
<glyph unicode="&#xe933;" glyph-name="unload" d="M848 896h-672c-61.9 0-112-50.1-112-112v-672c0-61.9 50.1-112 112-112h672c61.9 0 112 50.1 112 112v672c0 61.9-50.1 112-112 112zM864 184c0-48.6-39.4-88-88-88h-528c-48.6 0-88 39.4-88 88v528c0 48.6 39.4 88 88 88h528c48.6 0 88-39.4 88-88v-528zM288 504h448v-112h-448v112z" />
<glyph unicode="&#xe934;" glyph-name="up" d="M916.3 192l-404.3 475.6-404.3-475.6-43.7 36.4 448 526.9 448-526.9z" />
<glyph unicode="&#xe935;" glyph-name="upfill" d="M960 160l-448 512-448-512z" />
<glyph unicode="&#xe936;" glyph-name="warnfill" d="M512 960c-282.8 0-512-229.2-512-512s229.2-512 512-512 512 229.2 512 512-229.2 512-512 512zM576 128h-128v128h128v-128zM576 320h-128v448h128v-448z" />
<glyph unicode="&#xe937;" glyph-name="export" d="M847.7 288v-176.2h-672.4v176.2h-112.1v-288.2h896.5v288.2h-112zM416 287.1h192v352.3h192l-287.7 256.8-288.3-256.8h192v-352.3z" />
<glyph unicode="&#xe938;" glyph-name="download" d="M847.7 288v-176.2h-672.4v176.2h-112.1v-288.2h896.5v288.2h-112zM800 544h-192v352.2h-192v-352.2h-192l288.3-256.9 287.7 256.9z" />
<glyph unicode="&#xe939;" glyph-name="qrcode" d="M876 0v84h84v-84h-84zM736 140v84h-112v-224h-84v420h252v-84h84v84h84v-280h-224zM540 896h420v-420h-420v420zM596 532h308v308h-308v-308zM680 756h140v-140h-140v140zM64 420h420v-420h-420v420zM120 56h308v308h-308v-308zM204 280h140v-140h-140v140zM64 896h420v-420h-420v420zM120 532h308v308h-308v-308zM204 756h140v-140h-140v140zM820 0h-84v84h84v-84z" />
<glyph unicode="&#xe93a;" glyph-name="addhollow" d="M512 896c-247.4 0-448-200.6-448-448s200.6-448 448-448c247.4 0 448 200.6 448 448s-200.6 448-448 448zM512 74.2c-206.4 0-373.8 167.4-373.8 373.8s167.4 373.8 373.8 373.8c206.4 0 373.8-167.4 373.8-373.8s-167.4-373.8-373.8-373.8zM549.8 709.8h-75.6v-224h-224v-75.6h224v-224h75.6v224h224v75.6h-224v224z" />
<glyph unicode="&#xe93b;" glyph-name="count" d="M64 15.2v89.2c0 8.6 7.1 15.7 15.7 15.7h864.2c8.6 0 15.7-7.1 15.7-15.7v-89.2c0-8.6-7.1-15.7-15.7-15.7h-864.2c-8.6 0-15.7 7-15.7 15.7v0 0zM142.7 597.9h178.5c8.7 0 15.7-7.1 15.7-15.7v-402.2c0-8.7-7.1-15.7-15.7-15.7h-178.5c-8.6 0-15.7 7.1-15.7 15.7v402.1c0 8.7 7 15.8 15.7 15.8v0 0zM422.6 726.2h178.5c8.6 0 15.7-7.1 15.7-15.7v-530.5c0-8.7-7.1-15.7-15.7-15.7h-178.5c-8.7 0-15.7 7.1-15.7 15.7v530.5c0 8.6 7 15.7 15.7 15.7v0 0zM702.5 895.1h178.5c8.6 0 15.7-7.1 15.7-15.7v-699.4c0-8.7-7.1-15.7-15.7-15.7h-178.5c-8.6 0-15.7 7.1-15.7 15.7v699.4c0 8.7 7.1 15.7 15.7 15.7v0z" />
<glyph unicode="&#xe93c;" glyph-name="restart" d="M765.1 65.5l-192.8 272.8h107.7v274.3c0 30.3-25.1 54.9-56 54.9h-137.8l-116.4 164.5h366.2c61.9 0 112-49.1 112-109.7v-384h112l-194.9-272.8zM344 557.7v-274.3c0-30.3 25.1-54.9 56-54.9h133.5l116.3-164.5h-361.8c-61.9 0-112 49.1-112 109.7v384h-112l192.8 269.7 190.6-269.7h-103.4z" />
<glyph unicode="&#xe93d;" glyph-name="moveup" d="M896.2 433.5l-12.8-12c-42.4-39.8-111.3-39.8-153.7 0l-113.5 106.3v-416.4c0-61.9-46.6-112-104.1-112s-104.1 50.2-104.1 112v417l-114-106.8c-42.5-39.8-111.3-39.8-153.7 0l-12.8 12c-42.5 39.8-42.5 104.3 0 144.1l293.8 275.4c0.3 0.3 0.5 0.5 0.8 0.8l12.8 12c42.4 39.8 111.3 39.8 153.7 0l12.8-12c0.3-0.3 0.5-0.5 0.8-0.8l293.8-275.4c42.6-39.8 42.6-104.4 0.2-144.2z" />
<glyph unicode="&#xe93e;" glyph-name="movedown" d="M896.2 461.5l-12.8 12c-42.4 39.8-111.3 39.8-153.7 0l-113.5-106.3v416.5c0 61.9-46.6 112-104.1 112s-104.1-50.2-104.1-112v-416.9l-114 106.8c-42.5 39.8-111.3 39.8-153.7 0l-12.8-12c-42.5-39.8-42.5-104.3 0-144.1l293.9-275.5c0.3-0.3 0.5-0.5 0.8-0.8l12.8-12c42.4-39.8 111.3-39.8 153.7 0l12.8 12c0.3 0.3 0.5 0.5 0.8 0.8l293.8 275.4c42.5 39.8 42.5 104.4 0.1 144.1z" />
<glyph unicode="&#xe93f;" glyph-name="coupon" d="M894.8 496.6c1.8 24.1-6.4 48.8-24.5 67.3l-299 304.4c-33 33.6-86.6 33.6-119.6 0l-299-304.4c-19.6-20-27.6-47.3-23.9-73.2-0.3-3.5-0.5-7.1-0.5-10.7v-368.4c0.1-61.6 49.2-111.6 109.7-111.6h548.3c60.6 0 109.7 50 109.7 111.6v368.4c0 5.6-0.4 11.2-1.2 16.6zM512.2 446.5c-60.6 0-109.7 50-109.7 111.6s49.1 111.6 109.7 111.6c60.6 0 109.7-50 109.7-111.6s-49.2-111.6-109.7-111.6z" />
<glyph unicode="&#xe940;" glyph-name="itemfill_v2" d="M820 894.8c-10 10-27.9 14-52 14h-132.4c0-51.8-39.7-102.4-123.3-102.4s-123.9 50.6-123.9 102.4h-109.8c-45.6 0-55 0-74.6-14l-152.8-139.6v-204.8c0-30.8 20.4-51.2 51.2-51.2h102.4v-409.6c0-61.6 40.8-102.4 102.4-102.4h409.6c61.6 0 102.4 40.8 102.4 102.4v409.6h102.4c30.8 0 51.2 20.4 51.2 51.2v204.8l-152.8 139.6zM511.9 448c-28.3 0-51.1 22.9-51.1 51.2s22.8 51.2 51.1 51.2c28.3 0 51.3-22.9 51.3-51.2s-23.1-51.2-51.3-51.2zM511.9 601.6c-28.3 0-51.1 22.9-51.1 51.2s22.8 51.2 51.1 51.2c28.3 0 51.3-22.9 51.3-51.2s-23.1-51.2-51.3-51.2z" />
<glyph unicode="&#xe941;" glyph-name="item_v2" d="M768 857.6c10.8 0 16.4-1.1 18.6-1.7l135-123.3v-182.2h-153.6v-460.8c0-11.4-2.3-27.3-13.1-38.1s-26.7-13.1-38.1-13.1h-409.6c-11.4 0-27.3 2.3-38.1 13.1s-13.1 26.7-13.1 38.1v460.8h-153.6v182.2l133.6 122.1c2 1.3 2.7 1.6 2.7 1.6 3.7 1.3 22.9 1.3 39.9 1.3h67.8c20.9-56.2 77-102.4 165.9-102.4 88.6 0 144.5 46.2 165.3 102.4h90.4zM768 908.8h-132.4c0-51.8-39.7-102.4-123.3-102.4s-123.9 50.6-123.9 102.4h-109.8c-45.6 0-55 0-74.6-14l-152.8-139.6v-204.8c0-30.8 20.4-51.2 51.2-51.2h102.4v-409.6c0-61.6 40.8-102.4 102.4-102.4h409.6c61.6 0 102.4 40.8 102.4 102.4v409.6h102.4c30.8 0 51.2 20.4 51.2 51.2v204.8l-152.8 139.6c-10 10-27.9 14-52 14v0zM511.9 448c-28.3 0-51.1 22.9-51.1 51.2s22.8 51.2 51.1 51.2 51.3-22.9 51.3-51.2-23.1-51.2-51.3-51.2zM511.9 601.6c-28.3 0-51.1 22.9-51.1 51.2s22.8 51.2 51.1 51.2 51.3-22.9 51.3-51.2c0-28.3-23.1-51.2-51.3-51.2z" />
<glyph unicode="&#xe942;" glyph-name="homefill" d="M961 573.7c-0.4 0.4-0.9 0.9-1.3 1.3l-140.5 109.3v161.3c0 6.6-5.4 12-12 12h-129.6c-6.6 0-12-5.4-12-12v-41.7l-115.7 90c-20.8 20.9-54.9 20.9-75.8 0l-409.8-318.9c-0.5-0.4-0.9-0.9-1.3-1.3-26.4-28.2-5.5-74.5 33.1-74.5h57.5v-349.8c0-61.1 50-111 111-111h145v177.9c0 43 35.1 78.1 78.1 78.1h48.6c43 0 78.1-35.1 78.1-78.1v-177.9h145c61 0 111 49.9 111 111v349.8h57.5c38.6 0 59.5 46.2 33.1 74.5z" />
<glyph unicode="&#xe943;" glyph-name="home" d="M512 858.3c1.1 0 1.6-0.5 1.7-0.6l2.3-2.3 2.5-2 198.3-154.3v107.3h51.2v-147l140-109h-88.8v-401c0-15.9-6.3-30.8-17.6-42.2-11.4-11.4-26.3-17.6-42.2-17.6h-93.8v126.7c0 71.3-58 129.3-129.3 129.3h-48.6c-71.3 0-129.3-58-129.3-129.3v-126.7h-93.8c-15.9 0-30.8 6.3-42.2 17.6-11.4 11.4-17.6 26.3-17.6 42.2v401h-88.8l392 305.1 2.3 2.3c0.1 0 0.6 0.5 1.7 0.5zM512 909.5c-13.7 0-27.5-5.2-37.9-15.6l-409.8-318.9c-0.4-0.4-0.9-0.9-1.3-1.3-26.4-28.3-5.5-74.5 33.1-74.5h57.5v-349.8c0-61 49.9-111 111-111h145v177.9c0 43 35.1 78.1 78.1 78.1h48.6c43 0 78.1-35.1 78.1-78.1v-177.9h145c61 0 111 50 111 111v349.8h57.5c38.7 0 59.5 46.3 33.1 74.5-0.4 0.4-0.8 0.9-1.3 1.3l-140.5 109.4v161.2c0 6.6-5.4 12-12 12h-129.6c-6.6 0-12-5.4-12-12v-41.7l-115.7 90c-10.4 10.4-24.2 15.6-37.9 15.6v0z" />
<glyph unicode="&#xe944;" glyph-name="materialfill" d="M768 859.6h-512c-57.4 0-104.4-47-104.4-104.4v-614.4c0-57.4 47-104.4 104.4-104.4h512c57.4 0 104.4 47 104.4 104.4v614.4c0 57.4-47 104.4-104.4 104.4zM460.8 152.8c0-6.6-5.4-12-12-12h-180.8c-6.6 0-12 5.4-12 12v232c0 6.6 5.4 12 12 12h180.8c6.6 0 12-5.4 12-12v-232zM460.8 511.2c0-6.6-5.4-12-12-12h-180.8c-6.6 0-12 5.4-12 12v232c0 6.6 5.4 12 12 12h180.8c6.6 0 12-5.4 12-12v-232zM768 152.8c0-6.6-5.4-12-12-12h-180.8c-6.6 0-12 5.4-12 12v590.4c0 6.6 5.4 12 12 12h180.8c6.6 0 12-5.4 12-12v-590.4zM397.6 550.4h-78.4c-6.6 0-12 5.4-12 12v129.6c0 6.6 5.4 12 12 12h78.4c6.6 0 12-5.4 12-12v-129.6c0-6.6-5.4-12-12-12zM397.6 192h-78.4c-6.6 0-12 5.4-12 12v129.6c0 6.6 5.4 12 12 12h78.4c6.6 0 12-5.4 12-12v-129.6c0-6.6-5.4-12-12-12zM704.8 192h-78.4c-6.6 0-12 5.4-12 12v488c0 6.6 5.4 12 12 12h78.4c6.6 0 12-5.4 12-12v-488c0-6.6-5.4-12-12-12z" />
<glyph unicode="&#xe945;" glyph-name="material" d="M768 808.4c14.1 0 27.4-5.6 37.6-15.7 10.1-10.1 15.7-23.5 15.7-37.6v-614.4c0-14.1-5.6-27.4-15.7-37.6-10.1-10.1-23.5-15.7-37.6-15.7h-512c-14.1 0-27.4 5.6-37.6 15.7-10.1 10.1-15.7 23.5-15.7 37.6v614.5c0 14.1 5.6 27.4 15.7 37.6 10.1 10.1 23.5 15.7 37.6 15.7h512zM768 859.6h-512c-57.4 0-104.4-47-104.4-104.4v-614.4c0-57.4 47-104.4 104.4-104.4h512c57.4 0 104.4 47 104.4 104.4v614.4c0 57.4-47 104.4-104.4 104.4v0zM409.6 704v-153.6h-102.4v153.6h102.4zM448.8 755.2h-180.8c-6.6 0-12-5.4-12-12v-232c0-6.6 5.4-12 12-12h180.8c6.6 0 12 5.4 12 12v232c0 6.6-5.4 12-12 12v0zM716.8 704v-512h-102.4v512h102.4zM756 755.2h-180.8c-6.6 0-12-5.4-12-12v-590.4c0-6.6 5.4-12 12-12h180.8c6.6 0 12 5.4 12 12v590.4c0 6.6-5.4 12-12 12v0zM409.6 345.6v-153.6h-102.4v153.6h102.4zM448.8 396.8h-180.8c-6.6 0-12-5.4-12-12v-232c0-6.6 5.4-12 12-12h180.8c6.6 0 12 5.4 12 12v232c0 6.6-5.4 12-12 12v0z" />
<glyph unicode="&#xe946;" glyph-name="more" d="M288 448c0-70.692-57.308-128-128-128s-128 57.308-128 128c0 70.692 57.308 128 128 128s128-57.308 128-128zM640 448c0-70.692-57.308-128-128-128s-128 57.308-128 128c0 70.692 57.308 128 128 128s128-57.308 128-128zM992 448c0-70.692-57.308-128-128-128s-128 57.308-128 128c0 70.692 57.308 128 128 128s128-57.308 128-128z" />
<glyph unicode="&#xe947;" glyph-name="other" d="M128 896h288c35.2 0 64-28.8 64-64v-288c0-35.2-28.8-64-64-64h-288c-35.2 0-64 28.8-64 64v288c0 35.2 28.8 64 64 64zM608 0h288c35.2 0 64 28.8 64 64v288c0 35.2-28.8 64-64 64h-288c-35.2 0-64-28.8-64-64v-288c0-35.2 28.8-64 64-64zM640 288c0 19.2 12.8 32 32 32h160c19.2 0 32-12.8 32-32v-160c0-19.2-12.8-32-32-32h-160c-19.2 0-32 12.8-32 32v160zM608 480h288c35.2 0 64 28.8 64 64v288c0 35.2-28.8 64-64 64h-288c-35.2 0-64-28.8-64-64v-288c0-35.2 28.8-64 64-64zM640 768c0 19.2 12.8 32 32 32h160c19.2 0 32-12.8 32-32v-160c0-19.2-12.8-32-32-32h-160c-19.2 0-32 12.8-32 32v160zM128 0h288c35.2 0 64 28.8 64 64v288c0 35.2-28.8 64-64 64h-288c-35.2 0-64-28.8-64-64v-288c0-35.2 28.8-64 64-64zM160 288c0 19.2 12.8 32 32 32h160c19.2 0 32-12.8 32-32v-160c0-19.2-12.8-32-32-32h-160c-19.2 0-32 12.8-32 32v160z" />
<glyph unicode="&#xe948;" glyph-name="feedback" d="M920.006 141.995c0-56.38-45.622-102.002-102.002-102.002h-612.009c-56.38 0-102.002 45.622-102.002 102.002v612.009c0 56.38 45.622 102.002 102.002 102.002h357.005v102.002h-357.005c-112.66 0-204.003-91.343-204.003-204.003v-612.009c0-112.66 91.343-204.003 204.003-204.003h612.009c112.66 0 204.003 91.343 204.003 204.003v357.005h-102.002v-357.005zM971.007 856.006v51.001h-51.001v51.001h-51.001v-51.001h-51.001v-51.001h51.001v-51.001h51.001v-51.001h51.001v51.001h51.001v51.001h-51.001zM869.005 805.005h-51.001v51.001h-51.001v-51.001h-51.001v-51.001h-51.001v-51.001h-51.001v-51.001h-51.001v-51.001h-51.001v-51.001h-51.001v-51.001h-51.001v-51.001h-51.001v-51.001h51.001v-51.001h51.001v-51.001h51.001v51.001h51.001v51.001h51.001v51.001h51.001v51.001h51.001v51.001h51.001v51.001h51.001v51.001h51.001v51.001h51.001v51.001h-51.001v51.001zM409.998 345.998h-51.001v51.001h-51.001v-153.002h153.002v51.001h-51.001v51.001z" />
<glyph unicode="&#xe949;" glyph-name="qa" d="M512 958.008c-281.7 0-510.008-228.308-510.008-510.008s228.308-510.008 510.008-510.008 510.008 228.308 510.008 510.008-228.308 510.008-510.008 510.008zM512 30.73c-230.5 0-417.27 186.77-417.27 417.27s186.77 417.27 417.27 417.27 417.27-186.77 417.27-417.27-186.77-417.27-417.27-417.27zM553.737 271.689h-60.464c-11.156 0-20.121-9.164-20.121-20.42v-61.061c0-11.256 9.065-20.321 20.121-20.321h60.464c11.156 0 20.121 9.164 20.121 20.321v61.061c0 11.256-8.965 20.42-20.121 20.42zM649.463 644.831c-31.975 23.309-72.118 34.963-120.529 34.963-36.856 0-67.835-8.168-93.037-24.604-37.055-23.807-58.073-60.763-62.954-115.051-0.398-4.283 2.59-13.248 16.237-13.248h64.050c9.164 0 11.953 9.164 12.651 13.447 1.992 12.252 6.774 23.508 14.444 35.76 10.36 16.635 27.891 24.903 52.694 24.903 25.202 0 42.534-6.774 51.997-20.221 9.463-13.547 14.244-28.489 14.244-44.825 0-14.244-7.072-27.293-15.639-39.147-4.682-6.873-10.858-13.248-18.528-19.125 0 0-50.304-32.573-72.417-58.77-10.957-12.949-13.348-36.956-14.543-64.050-0.199-4.084 1.693-12.551 12.352-12.551h65.644c8.168 0 11.654 8.068 12.053 11.953 0.697 7.869 1.693 15.041 3.088 19.524 4.084 12.949 15.041 24.205 27.493 33.967l25.5 17.83c23.010 18.129 41.438 32.971 49.507 44.725 13.846 19.225 23.608 42.833 23.608 70.823 0.1 45.921-15.938 80.486-47.913 103.695z" />
<glyph unicode="&#xe94a;" glyph-name="wechat" d="M535.209 726.213c-38.45 0-69.528-31.178-69.528-69.528 0-38.45 31.178-69.528 69.528-69.528 38.45 0 69.528 31.178 69.528 69.528s-31.178 69.528-69.528 69.528zM1022.008 262.525c0 118.039-79.589 218.845-191.95 259.287 4.283 21.217 6.475 43.032 6.475 65.345 0 204.8-186.77 370.851-417.27 370.851-13.547 0-26.995-0.598-40.143-1.693l-0.199 3.586-1.693-3.785c-210.777-18.727-375.234-176.809-375.234-369.058 0-89.152 35.362-170.932 94.332-234.882l-88.355-190.058 408.106 54.089c1.096 0 2.191 0 3.287 0 1.395 0 2.789 0 4.184 0 23.309-128.398 141.946-227.013 286.481-231.695l311.981-46.518-63.95 153.202c40.044 47.216 63.95 106.683 63.95 171.331zM423.247 307.947l-282.198-45.423 59.468 119.035c-64.946 50.901-105.787 124.115-105.787 205.497 0 153.7 145.332 278.213 324.532 278.213s324.532-124.514 324.532-278.213c0-16.037-1.594-31.676-4.582-46.917-6.176 0.299-12.352 0.498-18.528 0.498-149.715 0.1-273.93-100.607-297.438-232.691zM907.455 35.611l-237.074 46.917c-90.945 20.022-158.381 93.037-158.381 179.997 0 102.4 93.435 185.475 208.685 185.475s208.685-83.075 208.685-185.475c0-50.602-22.811-96.523-59.866-129.992l37.952-96.921zM790.213 355.262c-25.6 0-46.319-20.719-46.319-46.319s20.719-46.319 46.319-46.319c25.6 0 46.319 20.719 46.319 46.319s-20.719 46.319-46.319 46.319zM651.057 355.262c-25.6 0-46.319-20.719-46.319-46.319s20.719-46.319 46.319-46.319c25.6 0 46.319 20.719 46.319 46.319s-20.719 46.319-46.319 46.319zM303.315 726.213c-38.45 0-69.528-31.178-69.528-69.528 0-38.45 31.178-69.528 69.528-69.528s69.528 31.178 69.528 69.528c0.1 38.35-31.079 69.528-69.528 69.528z" />
<glyph unicode="&#xe94b;" glyph-name="wangwang" d="M803.262 472.006l-24.006 89.55c-6.574 24.704-32.075 39.346-56.778 32.772-24.704-6.674-39.346-32.075-32.772-56.778l24.006-89.55c6.574-24.704 32.075-39.346 56.778-32.772 24.704 6.674 39.346 32.075 32.772 56.778zM547.561 515.237c-6.574 24.704-32.075 39.346-56.778 32.772-24.704-6.674-39.346-32.075-32.772-56.778l24.006-89.55c6.574-24.704 32.075-39.346 56.778-32.772 24.704 6.674 39.346 32.075 32.772 56.778l-24.006 89.55zM494.668-60.713c-55.483 0-108.675 7.272-158.581 21.815-62.456 18.229-118.537 46.020-166.749 82.577-48.71 37.055-88.355 82.677-117.64 135.57-29.485 53.491-46.020 113.158-49.208 177.606-2.391 47.813 3.586 93.037 17.631 134.275 13.547 39.944 32.075 77.099 55.085 110.668 22.412 32.672 47.514 62.556 74.609 88.554 25.6 24.704 50.901 46.319 75.007 64.548 1.195 4.781 1.693 19.823-7.072 48.311-7.869 25.202-18.528 46.618-18.627 46.917-3.486 6.873-6.774 12.949-9.861 18.030-4.781 7.969-8.367 15.141-10.957 21.914-7.471 19.325-4.383 38.749 8.268 52.595 12.053 13.547 28.19 14.543 37.155 15.041 7.57 0.498 15.938 0.498 21.616 0.398 32.772-0.398 42.733-3.785 46.518-5.080 11.754-3.984 25.102-9.563 39.645-16.635 7.172-3.486 27.991-14.742 61.46-32.971 19.623-10.658 46.419-25.202 51.2-27.493 8.268-3.686 51.598-17.233 66.54-20.819 7.869-1.893 94.929-23.707 128-32.274 26.795-6.973 53.391-15.34 79.091-25.002 25.7-9.563 51.1-20.619 75.405-32.872 25.401-12.75 49.805-28.289 72.417-46.020l0.498-0.398c51.3-41.438 90.746-89.65 117.441-143.24 27.094-54.288 39.944-113.656 38.35-176.411-1.594-63.452-14.543-123.019-38.749-176.909-24.106-53.889-58.073-101.703-100.906-142.145-42.534-40.243-93.933-72.716-152.803-96.722-58.173-23.707-123.318-37.952-193.444-42.434-13.846-0.996-27.692-1.395-41.339-1.395zM281.102 868.756c5.777-13.447 13.348-32.872 18.926-53.69 5.977-22.313 8.567-42.335 7.67-59.468-1.893-35.76-18.229-55.184-31.676-65.245-21.914-16.436-45.124-36.458-69.030-59.368-23.010-22.213-44.526-47.614-63.751-75.804-18.727-27.293-33.868-57.774-45.024-90.546-10.658-31.377-15.141-66.241-13.248-103.695 2.49-51.698 15.639-99.312 39.047-141.647 23.707-42.833 55.782-79.788 95.328-109.871 40.143-30.481 87.16-53.69 139.953-69.13 52.993-15.44 110.767-21.317 171.63-17.432 61.261 3.885 117.64 16.237 167.546 36.557 49.307 20.121 92.14 47.116 127.303 80.286 34.864 32.971 62.556 71.919 82.279 115.947 19.623 43.928 30.282 92.837 31.577 145.332 1.195 49.208-8.766 95.427-29.784 137.563-21.317 42.833-53.391 81.781-95.228 115.748-18.229 14.344-37.852 26.795-58.272 37.055-21.616 10.858-44.327 20.719-67.237 29.286-23.11 8.666-47.016 16.137-71.122 22.412-33.071 8.666-120.529 30.481-126.506 31.975-14.942 3.586-67.437 19.325-82.677 26.596-5.977 2.889-24.803 13.049-55.085 29.485-23.209 12.551-51.997 28.289-57.874 31.079-5.279 2.391-10.16 4.582-14.742 6.574z" />
<glyph unicode="&#xe94c;" glyph-name="close" d="M936.9 130.3c29.2-29.2 29.2-77 0-106.2v0c-29.2-29.2-77-29.2-106.2 0l-318.5 318.5-318.5-318.5c-29.2-29.2-77-29.2-106.2 0v0c-29.2 29.2-29.2 77 0 106.2l318.5 318.5-318.5 318.5c-29.2 29.2-29.2 77 0 106.2v0c29.2 29.2 77 29.2 106.2 0l318.5-318.5 318.5 318.5c29.2 29.2 77 29.2 106.2 0v0c29.2-29.2 29.2-77 0-106.2l-318.5-318.5 318.5-318.5z" />
<glyph unicode="&#xe94d;" glyph-name="copylink" d="M639.502 320.996h-127.502v-63.751h127.502v-127.502h63.751v127.502h127.502v63.751h-127.502v127.502h-63.751v-127.502zM894.506 703.502l-63.751 63.751h-127.502v63.751c0 70.425-57.077 127.502-127.502 127.502h-446.257c-70.425 0-127.502-57.077-127.502-127.502v-573.759c0-70.425 57.077-127.502 127.502-127.502h191.253v-63.751c0-70.425 57.077-127.502 127.502-127.502h446.257c70.425 0 127.502 57.077 127.502 127.502v510.008l-127.502 127.502zM320.747 639.751v-382.506h-127.502c-35.163 0-63.751 28.588-63.751 63.751v446.257c0 35.163 28.588 63.751 63.751 63.751h318.755c35.163 0 63.751-28.588 63.751-63.751h-127.502c-70.425 0-127.502-57.077-127.502-127.502zM894.506 65.992h-446.257v573.759h255.004v-191.253h191.253v-382.506z" />
<glyph unicode="&#xe94e;" glyph-name="share" d="M791.8 111.8h-616v560h224v112h-224c-58.7 0-112-56.6-112-112v-560c0-55.4 55.1-112 112-112h616c53.4 0 112 56.7 112 112v224h-112v-224zM735.7 503.8v-168l224 247.9-224 312.1v-168c-222.7-16-400.2-182.9-448-392 110 91.7 265.2 146.9 448 168z" />
<glyph unicode="&#xe94f;" glyph-name="halfcheck" d="M192 512h640v-128h-640v128z" />
<glyph unicode="&#xe950;" glyph-name="statistics" d="M417.27 384.249h-63.751c-35.163 0-63.751-28.588-63.751-63.751v-318.755c0-35.163 28.588-63.751 63.751-63.751h63.751c35.163 0 63.751 28.588 63.751 63.751v318.755c0 35.163-28.489 63.751-63.751 63.751zM672.274 639.253h-63.751c-35.163 0-63.751-28.588-63.751-63.751v-573.759c0-35.163 28.588-63.751 63.751-63.751h63.751c35.163 0 63.751 28.588 63.751 63.751v573.759c0 35.163-28.489 63.751-63.751 63.751zM162.266 192.996h-63.751c-35.163 0-63.751-28.588-63.751-63.751v-127.502c0-35.163 28.588-63.751 63.751-63.751h63.751c35.163 0 63.751 28.588 63.751 63.751v127.502c0 35.163-28.489 63.751-63.751 63.751zM927.278 958.008h-63.751c-35.163 0-63.751-28.588-63.751-63.751v-892.514c0-35.163 28.588-63.751 63.751-63.751h63.751c35.163 0 63.751 28.588 63.751 63.751v892.514c0 35.163-28.489 63.751-63.751 63.751z" />
<glyph unicode="&#xe951;" glyph-name="group" d="M64 832v-128h896v128h-896zM64 384h896v128h-896v-128zM64 64h896v128h-896v-128z" />
<glyph unicode="&#xe952;" glyph-name="refresh" d="M456 532h-168c0 114.2 125.4 168 224 168 68.3 0 132.3-26.9 180-75.7l80 78.4c-69 70.5-161.3 109.3-260 109.3-161.6 0-336-114.8-336-280h-112l196-196 196 196zM764 560l-196-196h168c0-112.4-125.4-168-224-168-68.3 0-132.3 26.9-180 75.7l-80-78.4c69-70.5 161.4-109.3 260.1-109.3 161.6 0 336 109.5 336 280h112l-196.1 196z" />
<glyph unicode="&#xe953;" glyph-name="member" d="M647.7 226.9c0.8 3.8 2.6 9.9 6.7 18.9 54 34 108.1 83.3 134.8 141.8 25.8 18.7 48 48.8 55.4 74.5 9.9 34.5-0.7 65.3-25.5 87.7l0.2 15.4c1.8 93.3-6.4 199.9-75.1 269.9-48.6 49.5-124.6 73.6-232.3 73.6s-183.7-24.1-232.3-73.6c-68.7-70-76.9-176.6-75.1-269.9l0.2-15.4c-24.7-22.3-35.3-53.2-25.5-87.7 7.4-25.6 29.6-55.8 55.4-74.5 26.8-58.5 80.9-107.8 134.8-141.8 4.1-9.1 5.9-15.1 6.7-18.9-80.8-10.9-325.1-52.3-325.1-153.5 0-55.8 43.2-70.6 75.7-76.9 42.1-8.2 108-9.6 230.9-9.6h308.4c122.9 0 188.7 1.4 230.9 9.6 32.5 6.3 75.7 21.1 75.7 76.9 0.2 101.2-244.1 142.6-324.9 153.5zM915.9 56.9c-5.3-4.1-14.9-7.5-28.5-10.2-37.8-7.3-104.1-8.7-221.1-8.7h-308.5c-117 0-183.3 1.3-221.1 8.7-13.6 2.6-23.2 6.1-28.5 10.2-2.3 1.8-5.7 4.4-5.7 16.5 0 9.9 20.4 35.7 97.6 62.2 66.6 22.8 143.3 35.2 183.1 40.6 14.1 1.9 26.7 9.6 34.9 21.1s11.2 26 8.4 39.9c-1.8 8.7-5.1 18.4-10.1 29.6-4.1 9.2-10.9 17-19.4 22.3-54.4 34.3-96.5 78-115.7 119.9-3.7 8-9.4 15-16.5 20.2-17.9 13-32.5 34.1-36.2 47.1-4.1 14.3-0.8 25.3 10.6 35.6 10.9 9.9 17.1 23.9 16.9 38.6 0 0-0.2 15.7-0.2 15.8-0.7 34.3-0.4 85.2 9.9 131.6 9.6 43.4 26.1 76.5 50.5 101.4 38.4 39.2 102.5 58.3 195.8 58.3s157.3-19.1 195.8-58.2c24.4-24.9 40.9-58.1 50.5-101.4 10.3-46.4 10.6-97.3 9.9-131.6 0-0.1-0.2-15.8-0.2-15.8-0.2-14.7 6-28.8 16.9-38.6 11.4-10.3 14.7-21.3 10.6-35.6-3.7-13-18.3-34.2-36.2-47.1-7.2-5.2-12.9-12.1-16.5-20.2-19.2-41.9-61.3-85.6-115.6-119.8-8.5-5.4-15.3-13.1-19.4-22.3-5-11.2-8.3-20.9-10.1-29.6-2.9-13.9 0.2-28.4 8.4-39.9 8.2-11.6 20.8-19.2 34.9-21.1 39.8-5.4 116.5-17.8 183.1-40.6 77.2-26.4 97.6-52.2 97.6-62.2-0.2-12.3-3.6-14.9-5.9-16.7z" />
<glyph unicode="&#xe954;" glyph-name="member-fill" d="M647.7 226.9c0.8 3.8 2.6 9.9 6.7 18.9 54 34 108.1 83.3 134.8 141.8 25.8 18.7 48 48.8 55.4 74.5 9.9 34.5-0.7 65.3-25.5 87.7l0.2 15.4c1.8 93.3-6.4 199.9-75.1 269.9-48.6 49.5-124.6 73.6-232.3 73.6s-183.7-24.1-232.3-73.6c-68.7-70-76.9-176.6-75.1-269.9l0.2-15.4c-24.7-22.3-35.3-53.2-25.5-87.7 7.4-25.6 29.6-55.8 55.4-74.5 26.8-58.5 80.9-107.8 134.8-141.8 4.1-9.1 5.9-15.1 6.7-18.9-80.8-10.9-325.1-52.3-325.1-153.5 0-55.8 43.2-70.6 75.7-76.9 42.1-8.2 108-9.6 230.9-9.6h308.4c122.9 0 188.7 1.4 230.9 9.6 32.5 6.3 75.7 21.1 75.7 76.9 0.2 101.2-244.1 142.6-324.9 153.5z" />
<glyph unicode="&#xe955;" glyph-name="file" d="M568 896h280c30.9 0 56-25.1 56-56s-25.1-56-56-56h-280c-30.9 0-56 25.1-56 56s25.1 56 56 56zM289.6 784l62.6-154.1 28.4-69.8h467.4v-392h-672v616h113.6zM365 896h-189c-61.9 0-112-50.1-112-112v-616c0-61.9 50.1-112 112-112h672c61.9 0 112 50.1 112 112v392c0 61.9-50.1 112-112 112h-392l-91 224z" />
</font>
</defs>
</svg>
